<svg width="173" height="29" viewBox="0 0 173 29" fill="none" xmlns="http://www.w3.org/2000/svg">
<path d="M18.7746 0.299998L26.2776 10.796L16.5606 29H3.8096L3.1946 24.203L2.7026 20.39V20.349L0.693598 4.195L2.9896 0.299998H18.7746ZM13.6086 20.103L17.6266 13.133L14.2236 8.418L13.6086 20.103ZM27.3391 4.195L29.6351 0.299998H41.3611L39.7211 29H30.4551L29.8401 24.203L29.3481 20.39V20.349L27.3391 4.195ZM61.6154 0.299998L69.1184 10.796L59.4014 29H46.6504L46.0354 24.203L45.5434 20.39V20.349L43.5344 4.195L45.8304 0.299998H61.6154ZM56.4494 20.103L60.4674 13.133L57.0644 8.418L56.4494 20.103ZM72.1889 20.39V20.349L70.1799 4.195L72.4759 0.299998H84.2019H90.3519L88.1379 9.32H83.6689L83.3819 14.814L87.8919 13.256V20.103H83.0949L82.7259 26.622L80.7579 29H73.2959L72.6809 24.203L72.1889 20.39ZM114.169 29H94.7764L94.1614 24.203L93.6694 20.39V20.349L91.6604 4.195L93.9564 0.299998H117.244L114.169 29ZM105.272 7.147L104.37 23.342C104.985 23.383 105.723 23.342 106.666 23.301C107.609 23.26 108.388 23.219 109.003 23.178L109.987 23.096V7.147H105.272ZM141.576 29H122.183L121.568 24.203L121.076 20.39V20.349L119.067 4.195L121.363 0.299998H144.651L141.576 29ZM132.679 7.147L131.777 23.342C132.392 23.383 133.13 23.342 134.073 23.301C135.016 23.26 135.795 23.219 136.41 23.178L137.394 23.096V7.147H132.679ZM164.554 0.299998L172.057 10.796L162.34 29H149.589L148.974 24.203L148.482 20.39V20.349L146.473 4.195L148.769 0.299998H164.554ZM159.388 20.103L163.406 13.133L160.003 8.418L159.388 20.103Z" fill="#22242E"/>
</svg>
